<svg width="84" height="84" viewBox="0 0 84 84" fill="none" xmlns="http://www.w3.org/2000/svg">
<g id="checkmark 1" clip-path="url(#clip0_0_226)">
<path id="Vector" d="M38.499 80.4451C17.2722 80.4451 0 63.1736 0 41.9468C0 20.7199 17.2722 3.44775 38.499 3.44775C45.8803 3.44775 53.0617 5.55102 59.267 9.5339C60.4853 10.3183 60.8422 11.9422 60.0578 13.1637C59.2709 14.3851 57.6501 14.7382 56.4287 13.9545C51.0738 10.5138 44.8723 8.69759 38.499 8.69759C20.1662 8.69759 5.24984 23.614 5.24984 41.9468C5.24984 60.2789 20.1662 75.1953 38.499 75.1953C56.8311 75.1953 71.7475 60.2789 71.7475 41.9468C71.7475 40.8509 71.695 39.766 71.5937 38.6989C71.454 37.2532 72.5108 35.9721 73.9527 35.8324C75.4017 35.6991 76.6789 36.7495 76.8192 38.1914C76.9378 39.4269 76.9974 40.6798 76.9974 41.9468C76.9974 63.1736 59.7259 80.4451 38.499 80.4451Z" fill="#4285F4"/>
<path id="Vector_2" d="M36.3731 57.7476C35.7015 57.7476 35.0293 57.4919 34.5185 56.9779L18.769 41.2284C17.7437 40.2024 17.7437 38.54 18.769 37.5147C19.7944 36.4893 21.4567 36.4893 22.4821 37.5147L36.377 51.4096L73.0169 14.769C74.0429 13.7437 75.7053 13.7437 76.7306 14.769C77.756 15.7944 77.756 17.4567 76.7306 18.4821L38.2316 56.9811C37.717 57.4919 37.0454 57.7476 36.3731 57.7476Z" fill="#4285F4"/>
</g>
<defs>
<clipPath id="clip0_0_226">
<rect width="84" height="84" fill="white"/>
</clipPath>
</defs>
</svg>
