<svg width="16" height="16" viewBox="0 0 16 16" fill="none" xmlns="http://www.w3.org/2000/svg">
<g id="clock 1" clip-path="url(#clip0_0_313)">
<g id="Group">
<g id="Group_2">
<path id="Vector" d="M10.8505 9.41291L8.61963 7.73979V4.3316C8.61963 3.98891 8.34262 3.71191 7.99994 3.71191C7.65725 3.71191 7.38025 3.98891 7.38025 4.3316V8.04966C7.38025 8.24485 7.47197 8.42891 7.62812 8.54541L10.1068 10.4044C10.2183 10.4881 10.3485 10.5284 10.478 10.5284C10.667 10.5284 10.8529 10.4435 10.9744 10.2799C11.1802 10.0066 11.1244 9.61804 10.8505 9.41291Z" fill="#FFA665"/>
</g>
</g>
<g id="Group_3">
<g id="Group_4">
<path id="Vector_2" d="M8 0C3.58853 0 0 3.58853 0 8C0 12.4115 3.58853 16 8 16C12.4115 16 16 12.4115 16 8C16 3.58853 12.4115 0 8 0ZM8 14.7607C4.27266 14.7607 1.23934 11.7273 1.23934 8C1.23934 4.27266 4.27266 1.23934 8 1.23934C11.728 1.23934 14.7607 4.27266 14.7607 8C14.7607 11.7273 11.7273 14.7607 8 14.7607Z" fill="#FFA665"/>
</g>
</g>
</g>
<defs>
<clipPath id="clip0_0_313">
<rect width="16" height="16" fill="white"/>
</clipPath>
</defs>
</svg>
