<svg width="74" height="74" viewBox="0 0 74 74" fill="none" xmlns="http://www.w3.org/2000/svg">
<g id="contract 1" clip-path="url(#clip0_0_203)">
<g id="Group">
<path id="Vector" d="M72.2799 16.7444C72.1432 16.4913 71.9117 16.3028 71.6359 16.2206L68.0297 15.145L68.6778 12.9776C68.8613 12.3725 68.7964 11.7312 68.4951 11.1718C68.3766 10.9519 68.2266 10.7564 68.0524 10.5881L69.254 6.57155C69.885 4.44911 68.6739 2.20916 66.5559 1.57915C65.5293 1.27187 64.4423 1.38403 63.4956 1.89538C62.5504 2.40616 61.862 3.25181 61.5577 4.27495L60.356 8.29161C59.573 8.4386 58.891 8.97409 58.5873 9.74834L49.2896 0.892625L49.1269 0.736965C48.9324 0.549941 48.7495 0.376504 48.5382 0.244113C48.5288 0.237609 48.5193 0.23125 48.5096 0.225035C48.5057 0.222723 48.5019 0.220266 48.4982 0.218098C48.4148 0.165199 48.324 0.123141 48.2272 0.0945234C48.0643 0.0362773 47.8825 0 47.665 0H3.64248C2.51065 0 1.58984 0.920375 1.58984 2.05162V33.0699C1.58984 33.6687 2.07518 34.1539 2.67383 34.1539C3.27248 34.1539 3.75781 33.6687 3.75781 33.0699V2.16797H46.8343L46.8273 8.42762C46.8273 11.1754 49.0626 13.4109 51.8103 13.4109H57.482L53.025 28.3148C52.8535 28.8883 53.1794 29.4923 53.7531 29.6639C54.3268 29.836 54.9305 29.5095 55.1021 28.9359L59.9633 12.6804C59.9724 12.6539 59.9803 12.627 59.9876 12.5995L60.5983 10.557C60.6283 10.4563 60.7468 10.3954 60.8498 10.4258L66.4704 12.1033C66.5334 12.122 66.5683 12.1662 66.5864 12.1999C66.6045 12.2334 66.622 12.2865 66.6019 12.3527L65.6438 15.5568C65.6431 15.5592 65.6419 15.5615 65.6412 15.564C65.6405 15.5664 65.6402 15.5689 65.6394 15.5712L53.8194 55.1011L51.858 54.516L47.8156 53.3101L53.6694 33.7374C53.8409 33.1637 53.515 32.5597 52.9414 32.3882C52.368 32.2164 51.7639 32.5425 51.5923 33.116L45.4276 53.7279C45.4257 53.7343 45.4247 53.7408 45.4228 53.7473C45.4192 53.7601 45.4165 53.7731 45.4133 53.7861C45.4068 53.8135 45.4012 53.8409 45.3968 53.8684C45.3947 53.8821 45.3926 53.8957 45.3909 53.9096C45.3873 53.9396 45.3851 53.9697 45.3841 53.9999C45.3837 54.0107 45.3828 54.0213 45.3827 54.0321C45.3824 54.0733 45.3843 54.1144 45.3887 54.1554C45.3889 54.1567 45.3887 54.158 45.3889 54.1593L45.9883 59.5073L46.4169 63.2931C46.0062 63.0239 45.6976 62.555 45.3272 61.9506C44.8722 61.2083 44.2488 60.1919 43.0553 60.4161C42.0527 60.6095 41.5812 61.4473 41.1252 62.2574C40.8886 62.6777 40.6439 63.1125 40.303 63.5452C40.0509 63.8658 39.8808 63.9568 39.8262 63.96C39.7825 63.9636 39.5305 63.9395 38.8199 63.2326C36.9608 61.3879 35.5148 62.6464 34.8199 63.2508C34.5605 63.4767 34.2663 63.7324 34.0731 63.7672C33.8903 63.7981 33.5573 63.612 33.1786 63.2645C32.7372 62.8598 32.0517 62.8895 31.647 63.331C31.2425 63.7722 31.2721 64.4579 31.7133 64.8626C33.932 66.8972 35.4928 65.5391 36.2429 64.8863C36.4262 64.7269 36.7329 64.4601 36.838 64.4404C36.8394 64.4406 36.9864 64.4673 37.292 64.7704C37.971 65.4462 38.7983 66.1283 39.8184 66.1283C39.8645 66.1283 39.911 66.1268 39.9578 66.1241C40.7072 66.0787 41.3968 65.6618 42.0067 64.8864C42.4511 64.3225 42.7638 63.767 43.015 63.3207C43.105 63.161 43.2124 62.9698 43.311 62.8127C43.3689 62.9039 43.4276 62.9996 43.4793 63.0838C44.0881 64.0763 45.2126 65.9073 47.7122 65.6984C47.7166 65.6984 47.7212 65.6994 47.7255 65.6994C47.8865 65.6994 48.0296 65.6621 48.1552 65.6062C48.1737 65.5984 48.1913 65.5894 48.2093 65.5806C48.2129 65.5787 48.2166 65.577 48.2202 65.5751C48.273 65.5484 48.3232 65.5179 48.3701 65.4834C48.5238 65.3757 48.6385 65.2515 48.7131 65.1706C48.7255 65.1571 48.7375 65.1434 48.7492 65.1292L55.3816 57.1422C55.3915 57.1303 55.3994 57.1172 55.4088 57.105C55.4207 57.0894 55.4322 57.0739 55.4433 57.0578C55.4662 57.0241 55.4867 56.9894 55.5055 56.9537C55.5111 56.9429 55.5178 56.9329 55.5231 56.9219C55.5465 56.8736 55.5655 56.8238 55.5814 56.7729C55.5828 56.7684 55.585 56.7646 55.5863 56.7602L58.6352 46.5636V71.832H3.75781V38.0805C3.75781 37.4817 3.27248 36.9965 2.67383 36.9965C2.07518 36.9965 1.58984 37.4817 1.58984 38.0805V71.9443C1.58984 73.0777 2.51065 74 3.64248 74H58.7466C59.8807 74 60.8033 73.0777 60.8033 71.9442V39.3129L67.4088 17.2221L69.977 17.9881L65.572 32.7184C65.4004 33.2919 65.7263 33.8959 66.2999 34.0675C66.4036 34.0984 66.5081 34.1131 66.611 34.1131C67.0777 34.1131 67.5085 33.8093 67.6492 33.3393L72.3649 17.5698C72.4472 17.2943 72.4167 16.9975 72.2799 16.7444ZM63.6354 4.89455C63.7748 4.42555 64.0912 4.03777 64.5264 3.80276C64.9629 3.56674 65.4628 3.51486 65.936 3.65635C66.9103 3.94628 67.4666 4.97679 67.1767 5.9518L66.0508 9.71539L62.5095 8.65843L63.6354 4.89455ZM48.9952 8.42877L49.0006 3.61039L57.0132 11.2428H51.8101C50.258 11.2428 48.9952 9.97988 48.9952 8.42877ZM48.4621 62.0814L47.7262 55.5457L52.6655 57.0192L48.4621 62.0814Z" fill="#4285F4"/>
<path id="Vector_2" d="M15.3104 29.2607C15.3104 29.8595 15.7958 30.3447 16.3944 30.3447H45.8263C46.425 30.3447 46.9103 29.8595 46.9103 29.2607C46.9103 28.6619 46.425 28.1768 45.8263 28.1768H16.3944C15.7958 28.1768 15.3104 28.6621 15.3104 29.2607Z" fill="#4285F4"/>
<path id="Vector_3" d="M16.3944 38.7708H44.0327C44.6313 38.7708 45.1167 38.2856 45.1167 37.6868C45.1167 37.088 44.6313 36.6028 44.0327 36.6028H16.3944C15.7958 36.6028 15.3104 37.088 15.3104 37.6868C15.3104 38.2856 15.7958 38.7708 16.3944 38.7708Z" fill="#4285F4"/>
<path id="Vector_4" d="M16.3944 47.1968H41.8943C42.493 47.1968 42.9783 46.7116 42.9783 46.1128C42.9783 45.514 42.493 45.0288 41.8943 45.0288H16.3944C15.7958 45.0288 15.3104 45.514 15.3104 46.1128C15.3104 46.7116 15.7958 47.1968 16.3944 47.1968Z" fill="#4285F4"/>
<path id="Vector_5" d="M16.3944 55.6228H33.8581C34.4568 55.6228 34.9421 55.1376 34.9421 54.5388C34.9421 53.94 34.4568 53.4548 33.8581 53.4548H16.3944C15.7958 53.4548 15.3104 53.94 15.3104 54.5388C15.3104 55.1376 15.7958 55.6228 16.3944 55.6228Z" fill="#4285F4"/>
<path id="Vector_6" d="M42.3786 22.0132C43.3837 22.0132 44.2014 21.1959 44.2014 20.1913V15.8205C44.2014 14.8159 43.3837 13.9985 42.3786 13.9985H18.5246C17.5195 13.9985 16.7019 14.8159 16.7019 15.8205V20.1911C16.7019 21.1958 17.5195 22.0131 18.5246 22.0131H42.3786V22.0132ZM18.8699 16.1664H42.0336V19.8453H18.8699V16.1664Z" fill="#4285F4"/>
</g>
</g>
<defs>
<clipPath id="clip0_0_203">
<rect width="74" height="74" fill="white"/>
</clipPath>
</defs>
</svg>
