<svg width="18" height="18" viewBox="0 0 18 18" fill="none" xmlns="http://www.w3.org/2000/svg">
<g id="location-pin 1" clip-path="url(#clip0_0_320)">
<path id="Vector" d="M9 0C5.2785 0 2.25 3.0495 2.25 6.79875C2.25 12.126 8.3655 17.6265 8.62575 17.8575C8.733 17.9527 8.8665 18 9 18C9.1335 18 9.267 17.9528 9.37425 17.8582C9.6345 17.6265 15.75 12.126 15.75 6.79875C15.75 3.0495 12.7215 0 9 0ZM9 10.5C6.93225 10.5 5.25 8.81775 5.25 6.75C5.25 4.68225 6.93225 3 9 3C11.0677 3 12.75 4.68225 12.75 6.75C12.75 8.81775 11.0677 10.5 9 10.5Z" fill="#FFA665"/>
</g>
<defs>
<clipPath id="clip0_0_320">
<rect width="18" height="18" fill="white"/>
</clipPath>
</defs>
</svg>
