<svg width="71" height="71" viewBox="0 0 71 71" fill="none" xmlns="http://www.w3.org/2000/svg">
<g id="bi:building" clip-path="url(#clip0_3_312)">
<g id="Group">
<path id="Vector" fill-rule="evenodd" clip-rule="evenodd" d="M65.5108 0.332779C65.8322 0.531554 66.0975 0.809126 66.2816 1.13918C66.4656 1.46923 66.5623 1.84082 66.5625 2.21872V68.7812C66.5625 69.3697 66.3287 69.934 65.9126 70.3501C65.4966 70.7662 64.9322 71 64.3438 71H51.0312C50.4428 71 49.8785 70.7662 49.4624 70.3501C49.0463 69.934 48.8125 69.3697 48.8125 68.7812V62.125H44.375V68.7812C44.375 69.3697 44.1412 69.934 43.7251 70.3501C43.309 70.7662 42.7447 71 42.1562 71H2.21875C1.6303 71 1.06595 70.7662 0.649857 70.3501C0.233761 69.934 0 69.3697 0 68.7812V44.375C0.000353432 43.9095 0.147095 43.4559 0.419454 43.0784C0.691814 42.7009 1.076 42.4187 1.51763 42.2716L26.625 33.9025V19.9687C26.625 19.557 26.7396 19.1534 26.9559 18.8031C27.1722 18.4528 27.4817 18.1696 27.8498 17.9852L63.3498 0.235154C63.6884 0.0656675 64.0647 -0.0143392 64.443 0.0027491C64.8213 0.0198374 65.1889 0.133452 65.5108 0.332779ZM26.625 38.5796L4.4375 45.9725V66.5625H26.625V38.5796ZM31.0625 66.5625H39.9375V59.9062C39.9375 59.3178 40.1713 58.7534 40.5874 58.3373C41.0035 57.9212 41.5678 57.6875 42.1562 57.6875H51.0312C51.6197 57.6875 52.184 57.9212 52.6001 58.3373C53.0162 58.7534 53.25 59.3178 53.25 59.9062V66.5625H62.125V5.80865L31.0625 21.3399V66.5625Z" fill="white"/>
<path id="Vector_2" d="M8.875 48.8125H13.3125V53.25H8.875V48.8125ZM17.75 48.8125H22.1875V53.25H17.75V48.8125ZM8.875 57.6875H13.3125V62.125H8.875V57.6875ZM17.75 57.6875H22.1875V62.125H17.75V57.6875ZM35.5 39.9375H39.9375V44.375H35.5V39.9375ZM44.375 39.9375H48.8125V44.375H44.375V39.9375ZM35.5 48.8125H39.9375V53.25H35.5V48.8125ZM44.375 48.8125H48.8125V53.25H44.375V48.8125ZM53.25 39.9375H57.6875V44.375H53.25V39.9375ZM53.25 48.8125H57.6875V53.25H53.25V48.8125ZM35.5 31.0625H39.9375V35.5H35.5V31.0625ZM44.375 31.0625H48.8125V35.5H44.375V31.0625ZM53.25 31.0625H57.6875V35.5H53.25V31.0625ZM35.5 22.1875H39.9375V26.625H35.5V22.1875ZM44.375 22.1875H48.8125V26.625H44.375V22.1875ZM53.25 22.1875H57.6875V26.625H53.25V22.1875ZM53.25 13.3125H57.6875V17.75H53.25V13.3125Z" fill="white"/>
</g>
</g>
<defs>
<clipPath id="clip0_3_312">
<rect width="71" height="71" fill="white"/>
</clipPath>
</defs>
</svg>
