<svg width="16" height="16" viewBox="0 0 16 16" fill="none" xmlns="http://www.w3.org/2000/svg">
<g id="phone 1">
<g id="Group">
<g id="Group_2">
<path id="Vector" d="M12.595 0.447934V0.446281C12.311 0.160785 11.925 0.000165289 11.5223 0H4.47603C3.63913 0.00272727 2.96141 0.680455 2.95868 1.51736V14.481C2.95884 14.8837 3.11946 15.2697 3.40496 15.5537C3.68856 15.8388 4.07393 15.9994 4.47603 16H11.524C11.9261 15.9994 12.3114 15.8388 12.595 15.5537C12.8801 15.2701 13.0407 14.8848 13.0413 14.4826V1.51901C13.0407 1.1169 12.8801 0.731529 12.595 0.447934ZM8 14.9702C7.7736 14.9702 7.59008 14.7867 7.59008 14.5603C7.59008 14.3339 7.7736 14.1504 8 14.1504C8.22641 14.1504 8.40992 14.3339 8.40992 14.5603C8.40992 14.7867 8.22641 14.9702 8 14.9702ZM11.8364 12.3967C11.8364 12.9444 11.3924 13.3884 10.8446 13.3884H5.15372C4.60599 13.3884 4.16198 12.9444 4.16198 12.3967V2.73554C4.16198 2.18781 4.60599 1.7438 5.15372 1.7438H10.8463C11.394 1.7438 11.838 2.18781 11.838 2.73554L11.8364 12.3967Z" fill="#FFA665"/>
</g>
</g>
</g>
</svg>
