<svg width="81" height="81" viewBox="0 0 81 81" fill="none" xmlns="http://www.w3.org/2000/svg">
<g id="price-tag 1">
<g id="Group">
<path id="Vector" d="M71.044 61.3829C71.6993 61.3829 72.2305 60.8517 72.2305 60.1964V31.7198C72.2305 30.3036 71.6786 28.8549 70.6763 27.6407L61.8766 16.9788C61.4156 16.4201 60.8856 15.9493 60.3101 15.5744C60.3454 15.2118 60.3655 14.8456 60.3655 14.4758V1.18677C60.3655 0.53149 59.8342 0.000244141 59.1789 0.000244141C58.5237 0.000244141 57.9924 0.53149 57.9924 1.18677C57.9924 1.18677 57.99 14.5889 57.9891 14.6456C57.6515 14.5858 57.3088 14.5549 56.9641 14.5549H41.6184C40.538 14.5549 39.479 14.858 38.5309 15.4151C38.4899 15.4298 38.4493 15.4462 38.4094 15.4657L26.843 21.0996C25.5616 21.7424 24.5369 22.8206 23.9574 24.1354C23.9511 24.1498 23.945 24.1642 23.9393 24.1787L19.1572 36.3085C18.9169 36.9182 19.2162 37.6072 19.8259 37.8476C19.9688 37.904 20.1159 37.9305 20.2608 37.9305C20.7338 37.9305 21.1809 37.6456 21.3649 37.1789L26.1377 25.0726C26.4967 24.2707 27.1243 23.6136 27.8946 23.227L34.0057 20.2504L27.906 27.6409C26.9927 28.7473 26.51 30.158 26.51 31.7201V72.6947C26.51 73.1719 26.5519 73.6391 26.628 74.0944L14.4018 68.6769C11.6398 67.4532 10.3881 64.2026 11.612 61.4308C11.6172 61.4188 11.6223 61.4066 11.6273 61.3946L19.3608 42.1755C19.6054 41.5675 19.311 40.8764 18.703 40.6317C18.0947 40.3871 17.404 40.6817 17.1592 41.2895L9.43259 60.4908C7.69521 64.4538 9.48986 69.0958 13.4404 70.8461L27.7774 77.1989C27.7949 77.2067 27.8128 77.2124 27.8305 77.2192C29.2857 79.4929 31.8014 81.0001 34.6574 81.0001H63.925C68.4272 81.0001 72.2307 77.1966 72.2307 72.6944V65.7335C72.2307 65.0782 71.6995 64.547 71.0442 64.547C70.3889 64.547 69.8577 65.0782 69.8577 65.7335V72.6944C69.8577 75.9102 67.1408 78.627 63.925 78.627H34.6574C31.4735 78.627 28.883 75.9657 28.883 72.6944V31.7198C28.883 30.7013 29.17 29.837 29.7362 29.1512L38.536 18.4893C39.355 17.497 40.4785 16.9278 41.6184 16.9278H56.9641C57.1876 16.9278 57.4104 16.9504 57.6304 16.9932C56.8877 19.5261 55.0478 21.6397 52.5632 22.6989C51.9135 21.6122 50.7257 20.8829 49.3702 20.8829C47.3202 20.8829 45.6524 22.5507 45.6524 24.6007C45.6524 26.6507 47.3202 28.3184 49.3702 28.3184C51.2659 28.3184 52.8337 26.8918 53.0592 25.0558C56.2547 23.8471 58.6711 21.2862 59.7477 18.1602C59.851 18.2642 59.951 18.3735 60.0465 18.4893L68.8463 29.1514C69.4984 29.9415 69.8577 30.8537 69.8577 31.72V60.1965C69.8575 60.8517 70.3887 61.3829 71.044 61.3829ZM49.3702 25.9454C48.6287 25.9454 48.0255 25.3422 48.0255 24.6007C48.0255 23.8592 48.6287 23.2559 49.3702 23.2559C50.1117 23.2559 50.7149 23.8592 50.7149 24.6007C50.7149 25.3422 50.1117 25.9454 49.3702 25.9454Z" fill="#4285F4"/>
<path id="Vector_2" d="M39.0869 63.123C39.3905 63.123 39.6943 63.0072 39.9259 62.7754L60.1759 42.5254C60.6393 42.0621 60.6393 41.3108 60.1759 40.8475C59.7125 40.3842 58.9612 40.3842 58.498 40.8475L38.248 61.0975C37.4915 61.8026 38.0719 63.1589 39.0869 63.123Z" fill="#4285F4"/>
<path id="Vector_3" d="M41.6183 50.625C44.4533 50.625 46.7599 48.3184 46.7599 45.4834C46.7599 42.6484 44.4533 40.3418 41.6183 40.3418H41.4601C38.6251 40.3418 36.3185 42.6484 36.3185 45.4834C36.3185 48.3184 38.6251 50.625 41.4601 50.625H41.6183ZM38.6915 45.4834C38.6915 43.9569 39.9336 42.7148 41.4601 42.7148H41.6183C43.1448 42.7148 44.3868 43.9569 44.3868 45.4834C44.3868 47.0099 43.1448 48.252 41.6183 48.252H41.4601C39.9336 48.252 38.6915 47.0099 38.6915 45.4834Z" fill="#4285F4"/>
<path id="Vector_4" d="M56.964 63.123H57.1222C59.9572 63.123 62.2638 60.8164 62.2638 57.9814C62.2638 55.1464 59.9572 52.8398 57.1222 52.8398H56.964C54.129 52.8398 51.8224 55.1464 51.8224 57.9814C51.8224 60.8164 54.129 63.123 56.964 63.123ZM56.964 55.2129H57.1222C58.6487 55.2129 59.8907 56.4549 59.8907 57.9814C59.8907 59.5079 58.6487 60.75 57.1222 60.75H56.964C55.4375 60.75 54.1954 59.5079 54.1954 57.9814C54.1954 56.4549 55.4375 55.2129 56.964 55.2129Z" fill="#4285F4"/>
</g>
</g>
</svg>
