<svg width="75" height="75" viewBox="0 0 75 75" fill="none" xmlns="http://www.w3.org/2000/svg">
<g id="project 1" clip-path="url(#clip0_0_235)">
<g id="Group">
<g id="Group_2">
<g id="Group_3">
<path id="Vector" d="M73.7499 0H17.5C16.8097 0 16.25 0.559686 16.25 1.25V20H18.75V2.49999H72.4999V71.2498C72.5119 71.9072 72.0047 72.4578 71.3486 72.4998C71.2411 72.4998 71.1336 72.4911 71.0261 72.4886C70.8049 72.4823 70.5836 72.4773 70.3661 72.4548C70.3474 72.4548 70.3299 72.4548 70.3111 72.4473C66.2286 72.0011 63.0038 68.7794 62.5536 64.6974C62.5536 64.6799 62.5474 64.6611 62.5449 64.6436C62.5146 64.3466 62.4996 64.0483 62.4999 63.7499V61.2499C62.4999 60.5596 61.9402 59.9999 61.2499 59.9999H18.75V37.4999H16.25V59.9999H6.25C5.55969 59.9999 5 60.5596 5 61.2499V63.7499C5.00687 69.9602 10.0397 74.993 16.25 74.9998H71.3749C73.4033 74.9467 75.0155 73.2789 74.9999 71.2498V1.25C74.9999 0.559686 74.4402 0 73.7499 0ZM16.25 72.4998C11.4198 72.4944 7.50546 68.58 7.49999 63.7499V62.4999H59.9999V63.7499C60.0016 64.1621 60.0254 64.5739 60.0711 64.9836C60.0824 65.0924 60.1036 65.1974 60.1186 65.3049C60.1599 65.6074 60.2099 65.9086 60.2761 66.2049C60.2986 66.3086 60.3274 66.4111 60.3536 66.5149C60.4299 66.8161 60.5161 67.1124 60.6161 67.4049C60.6449 67.4886 60.6749 67.5711 60.7061 67.6549C60.8199 67.9649 60.9486 68.2674 61.0899 68.5661C61.1199 68.6274 61.1474 68.6911 61.1774 68.7474C61.3341 69.0641 61.5061 69.3719 61.6936 69.6711C61.7186 69.7111 61.7411 69.7524 61.7661 69.7961C61.9699 70.1153 62.1899 70.4241 62.4249 70.7211L62.4649 70.7748C62.7377 71.1175 63.0299 71.4442 63.3399 71.7536C63.6091 72.0203 63.8882 72.2703 64.1774 72.5036L16.25 72.4998Z" fill="#4285F4"/>
<path id="Vector_2" d="M41.2499 35C41.5815 35 41.8993 34.8681 42.1337 34.6337L47.1337 29.6337C47.6216 29.1456 47.6216 28.3544 47.1337 27.8662L42.1337 22.8662C41.8993 22.6319 41.5815 22.5 41.2499 22.5H6.24999C2.79828 22.5 0 25.2983 0 28.75C0 32.2017 2.79828 35 6.24999 35H41.2499ZM40.9274 25.195L44.4824 28.75L40.9274 32.305L40.0387 28.75L40.9274 25.195ZM9.99998 25H38.3999L37.7749 27.5H12.5V30H37.7749L38.3999 32.5H9.99998V25ZM2.49999 28.75C2.49999 26.6789 4.1789 25 6.24999 25H7.49998V32.5H6.24999C4.1789 32.5 2.49999 30.8211 2.49999 28.75Z" fill="#4285F4"/>
<path id="Vector_3" d="M28.7499 53.7498H66.2498C66.9402 53.7498 67.4998 53.1901 67.4998 52.4998V14.9999C67.4997 14.3096 66.94 13.7501 66.2495 13.7502C65.9181 13.7502 65.6005 13.882 65.3661 14.1162L27.8662 51.6161C27.3781 52.1044 27.3782 52.8958 27.8665 53.3839C28.1009 53.6181 28.4185 53.7498 28.7499 53.7498ZM64.9999 18.0174V21.2499H62.4999V23.7499H64.9999V26.2499H62.4999V28.7499H64.9999V31.2499H62.4999V33.7499H64.9999V36.2499H62.4999V38.7499H64.9999V41.2499H62.4999V43.7498H64.9999V46.2498H62.4999V48.7498H64.9999V51.2498H62.4999V48.7498H59.9999V51.2498H57.4999V48.7498H54.9999V51.2498H52.4999V48.7498H49.9999V51.2498H47.4999V48.7498H44.9999V51.2498H42.4999V48.7498H39.9999V51.2498H37.4999V48.7498H34.9999V51.2498H31.7674L64.9999 18.0174Z" fill="#4285F4"/>
<path id="Vector_4" d="M46.8562 46.2498H58.7499C59.4403 46.2498 59.9999 45.6901 59.9999 44.9998V33.1061C59.9998 32.4158 59.4401 31.8563 58.7496 31.8564C58.4182 31.8564 58.1006 31.9882 57.8662 32.2224L45.9724 44.1161C45.4843 44.6044 45.4845 45.3958 45.9728 45.8839C46.2071 46.1181 46.5248 46.2498 46.8562 46.2498ZM57.4999 36.1249V43.7498H49.8749L57.4999 36.1249Z" fill="#4285F4"/>
<path id="Vector_5" d="M57.4999 7.5H32.4999V9.99999H57.4999V7.5Z" fill="#4285F4"/>
<path id="Vector_6" d="M61.2499 12.5H28.7499V15H61.2499V12.5Z" fill="#4285F4"/>
<path id="Vector_7" d="M28.7499 38.75H21.2499V41.25H28.7499V38.75Z" fill="#4285F4"/>
<path id="Vector_8" d="M26.2499 43.75H21.2499V46.25H26.2499V43.75Z" fill="#4285F4"/>
</g>
</g>
</g>
</g>
<defs>
<clipPath id="clip0_0_235">
<rect width="75" height="75" fill="white"/>
</clipPath>
</defs>
</svg>
