<svg width="73" height="73" viewBox="0 0 73 73" fill="none" xmlns="http://www.w3.org/2000/svg">
<g id="search 1">
<path id="Vector" d="M28.5156 49.0469C36.0631 49.0469 42.2031 42.9069 42.2031 35.3594C42.2031 27.8119 36.0631 21.6719 28.5156 21.6719C20.9681 21.6719 14.8281 27.8119 14.8281 35.3594C14.8281 42.9069 20.9681 49.0469 28.5156 49.0469ZM28.5156 23.9531C34.805 23.9531 39.9219 29.07 39.9219 35.3594C39.9219 41.6488 34.805 46.7656 28.5156 46.7656C22.2262 46.7656 17.1094 41.6488 17.1094 35.3594C17.1094 29.07 22.2262 23.9531 28.5156 23.9531Z" fill="#4285F4"/>
<path id="Vector_2" d="M66.1562 1.14062H27.375C24.2303 1.14062 21.6719 3.69905 21.6719 6.84375V18.453C14.9924 21.1666 10.2656 27.7172 10.2656 35.3594C10.2656 38.3615 11.0082 41.1903 12.2982 43.6905L2.89262 53.0961C1.76227 54.2265 1.14062 55.7275 1.14062 57.3255C1.14062 60.6219 3.82337 63.3047 7.11978 63.3047C8.71666 63.3047 10.2189 62.683 11.3481 61.5538L20.9533 51.9486C21.1917 52.0581 21.4278 52.1665 21.6719 52.2657V66.1562C21.6719 69.301 24.2303 71.8594 27.375 71.8594H66.1562C69.301 71.8594 71.8594 69.301 71.8594 66.1562V6.84375C71.8594 3.69905 69.301 1.14062 66.1562 1.14062ZM28.5156 19.3906C37.3213 19.3906 44.4844 26.5538 44.4844 35.3594C44.4844 44.165 37.3213 51.3281 28.5156 51.3281C19.71 51.3281 12.5469 44.165 12.5469 35.3594C12.5469 26.5538 19.71 19.3906 28.5156 19.3906ZM28.5156 53.6094C38.5782 53.6094 46.7656 45.422 46.7656 35.3594C46.7656 25.2968 38.5782 17.1094 28.5156 17.1094V7.98438H65.0156V55.8906H28.5156V53.6094ZM9.73523 59.941C9.03717 60.639 8.10756 61.0234 7.11978 61.0234C5.08034 61.0234 3.42188 59.365 3.42188 57.3255C3.42188 56.3377 3.80627 55.4081 4.50433 54.7101L9.41016 49.8043L14.6411 55.0352L9.73523 59.941ZM16.2539 53.4223L11.023 48.1914L13.5027 45.7117C14.9182 47.7591 16.7467 49.4929 18.8591 50.8171L16.2539 53.4223ZM69.5781 66.1562C69.5781 68.0428 68.0428 69.5781 66.1562 69.5781H27.375C25.4884 69.5781 23.9531 68.0428 23.9531 66.1562V53.0083C24.698 53.201 25.4565 53.3527 26.2344 53.4508V55.8906C26.2344 57.1487 27.2575 58.1719 28.5156 58.1719H65.0156C66.2737 58.1719 67.2969 57.1487 67.2969 55.8906V7.98438C67.2969 6.72627 66.2737 5.70312 65.0156 5.70312H28.5156C27.2575 5.70312 26.2344 6.72627 26.2344 7.98438V17.2679C25.4565 17.366 24.698 17.5177 23.9531 17.7105V6.84375C23.9531 4.95716 25.4884 3.42188 27.375 3.42188H66.1562C68.0428 3.42188 69.5781 4.95716 69.5781 6.84375V66.1562Z" fill="#4285F4"/>
<path id="Vector_3" d="M53.6094 60.4531H39.9219C38.6638 60.4531 37.6406 61.4763 37.6406 62.7344V65.0156C37.6406 66.2737 38.6638 67.2969 39.9219 67.2969H53.6094C54.8675 67.2969 55.8906 66.2737 55.8906 65.0156V62.7344C55.8906 61.4763 54.8675 60.4531 53.6094 60.4531ZM39.9219 65.0156V62.7344H53.6094L53.6117 65.0156H39.9219Z" fill="#4285F4"/>
<path id="Vector_4" d="M33.0781 60.4531H30.7969C29.5388 60.4531 28.5156 61.4763 28.5156 62.7344V65.0156C28.5156 66.2737 29.5388 67.2969 30.7969 67.2969H33.0781C34.3362 67.2969 35.3594 66.2737 35.3594 65.0156V62.7344C35.3594 61.4763 34.3362 60.4531 33.0781 60.4531ZM30.7969 65.0156V62.7344H33.0781L33.0804 65.0156H30.7969Z" fill="#4285F4"/>
<path id="Vector_5" d="M62.7344 60.4531H60.4531C59.195 60.4531 58.1719 61.4763 58.1719 62.7344V65.0156C58.1719 66.2737 59.195 67.2969 60.4531 67.2969H62.7344C63.9925 67.2969 65.0156 66.2737 65.0156 65.0156V62.7344C65.0156 61.4763 63.9925 60.4531 62.7344 60.4531ZM60.4531 65.0156V62.7344H62.7344L62.7367 65.0156H60.4531Z" fill="#4285F4"/>
<path id="Vector_6" d="M22.8125 27.7183V43.0003L36.5684 35.3593L22.8125 27.7183ZM25.0938 31.5941L31.8691 35.3593L25.0938 39.1245V31.5941Z" fill="#4285F4"/>
<path id="Vector_7" d="M49.0469 21.6719H62.7344V10.2656H49.0469V21.6719ZM51.3281 12.5469H60.4531V19.3906H51.3281V12.5469Z" fill="#4285F4"/>
<path id="Vector_8" d="M49.0469 44.4844H62.7344V33.0781H49.0469V44.4844ZM51.3281 35.3594H60.4531V42.2031H51.3281V35.3594Z" fill="#4285F4"/>
<path id="Vector_9" d="M49.0469 23.9531H51.3281V26.2344H49.0469V23.9531Z" fill="#4285F4"/>
<path id="Vector_10" d="M53.6094 23.9531H62.7344V26.2344H53.6094V23.9531Z" fill="#4285F4"/>
<path id="Vector_11" d="M49.0469 28.5156H62.7344V30.7969H49.0469V28.5156Z" fill="#4285F4"/>
<path id="Vector_12" d="M49.0469 46.7656H51.3281V49.0469H49.0469V46.7656Z" fill="#4285F4"/>
<path id="Vector_13" d="M53.6094 46.7656H62.7344V49.0469H53.6094V46.7656Z" fill="#4285F4"/>
<path id="Vector_14" d="M49.0469 51.3281H62.7344V53.6094H49.0469V51.3281Z" fill="#4285F4"/>
</g>
</svg>
