<svg width="78" height="78" viewBox="0 0 78 78" fill="none" xmlns="http://www.w3.org/2000/svg">
<g id="shield 1">
<path id="Vector" d="M62.1671 54.1362C61.9862 54.136 61.8084 54.0893 61.6508 54.0005C61.4933 53.9118 61.3611 53.784 61.2672 53.6294C61.1733 53.4748 61.1208 53.2987 61.1146 53.1179C61.1085 52.9371 61.149 52.7578 61.2322 52.5972C61.7096 51.6739 62.1228 50.7927 62.497 49.9052C62.6089 49.654 62.8146 49.4564 63.0701 49.3547C63.3257 49.253 63.6108 49.2552 63.8648 49.3609C64.1187 49.4665 64.3213 49.6672 64.4293 49.9202C64.5373 50.1731 64.5421 50.4582 64.4428 50.7147C64.0518 51.657 63.6154 52.5899 63.1094 53.567C63.0201 53.7395 62.8848 53.8839 62.7185 53.9844C62.5522 54.0848 62.3614 54.1373 62.1671 54.1362Z" fill="#4285F4"/>
<path id="Vector_2" d="M39 75.8919C38.835 75.8916 38.6722 75.853 38.5247 75.7791C20.9957 66.9324 10.53 52.0924 10.53 36.0802V14.7567C10.5301 14.6093 10.5611 14.4635 10.621 14.3287C10.6809 14.194 10.7684 14.0734 10.8779 13.9746C10.9877 13.8762 11.1167 13.8017 11.2567 13.7558C11.3968 13.7099 11.5449 13.6936 11.6916 13.7079C22.1151 14.7809 31.0324 11.0032 38.1926 2.48329C38.2905 2.36698 38.4124 2.27322 38.55 2.20845C38.6875 2.14368 38.8375 2.10943 38.9895 2.10805C39.1418 2.10554 39.2927 2.13653 39.4317 2.19882C39.5707 2.26112 39.6943 2.35319 39.7937 2.46854C46.0833 9.66246 55.048 13.4412 66.4402 13.7026C66.7156 13.709 66.9775 13.8228 67.1699 14.0198C67.3624 14.2168 67.4701 14.4813 67.47 14.7567V32.117C67.47 32.3965 67.359 32.6646 67.1613 32.8623C66.9636 33.06 66.6955 33.171 66.416 33.171C66.1364 33.171 65.8683 33.06 65.6707 32.8623C65.473 32.6646 65.3619 32.3965 65.3619 32.117V15.7791C54.3123 15.3206 45.4603 11.6156 39.019 4.75267C31.7882 12.89 22.9225 16.634 12.6381 15.9067V36.0802C12.6381 51.1363 22.4819 65.15 39 73.6541C46.1238 70.0918 52.3764 65.0055 57.3142 58.7561C57.3983 58.6461 57.5032 58.5538 57.623 58.4844C57.7428 58.4149 57.8751 58.3698 58.0123 58.3515C58.1495 58.3332 58.289 58.3421 58.4228 58.3777C58.5566 58.4133 58.682 58.4749 58.792 58.559C58.902 58.6431 58.9943 58.748 59.0637 58.8678C59.1332 58.9875 59.1783 59.1198 59.1966 59.257C59.2149 59.3943 59.206 59.5338 59.1704 59.6675C59.1348 59.8013 59.0732 59.9268 58.9891 60.0368C53.7431 66.6769 47.075 72.0563 39.4754 75.7791C39.3278 75.853 39.1651 75.8916 39 75.8919Z" fill="#4285F4"/>
<path id="Vector_3" d="M65.6897 44.2912C65.6188 44.2917 65.5482 44.2846 65.4788 44.2701C65.2048 44.2154 64.9636 44.0541 64.8085 43.8217C64.6533 43.5892 64.5968 43.3047 64.6514 43.0306C64.8622 42.0071 65.0224 40.9615 65.1447 39.9211C65.1583 39.7816 65.1996 39.6463 65.2662 39.5229C65.3327 39.3996 65.4232 39.2908 65.5324 39.2028C65.6415 39.1149 65.767 39.0496 65.9017 39.0108C66.0364 38.9719 66.1774 38.9603 66.3166 38.9767C66.4558 38.993 66.5903 39.0369 66.7123 39.1059C66.8344 39.1748 66.9414 39.2674 67.0272 39.3782C67.113 39.489 67.1758 39.6158 67.212 39.7512C67.2483 39.8866 67.2571 40.0279 67.2381 40.1667C67.1095 41.2629 66.9345 42.3655 66.7184 43.4438C66.6708 43.6819 66.5424 43.8963 66.355 44.0507C66.1675 44.2052 65.9325 44.2901 65.6897 44.2912Z" fill="#4285F4"/>
<path id="Vector_4" d="M39.0001 68.9922C38.819 68.9922 38.6411 68.9454 38.4836 68.8562C24.7261 61.1236 16.5139 48.9177 16.5139 36.2037V20.805C16.5136 20.5335 16.6182 20.2723 16.8057 20.076C16.9932 19.8796 17.2493 19.7632 17.5205 19.751C25.3378 19.412 32.764 16.2375 38.4108 10.821C38.5995 10.646 38.8457 10.5461 39.103 10.5401C39.3602 10.5341 39.6108 10.6224 39.8075 10.7883C45.7171 15.6304 52.9436 18.588 60.5523 19.2788C60.8095 19.308 61.0469 19.4308 61.2193 19.6239C61.3917 19.8169 61.4871 20.0666 61.4872 20.3254V36.2026C61.4872 48.9166 53.2741 61.1236 39.5165 68.8562C39.359 68.9454 39.1811 68.9922 39.0001 68.9922ZM18.622 21.799V36.2037C18.622 47.987 26.2281 59.3592 39.0001 66.7217C51.7731 59.357 59.3791 47.9827 59.3791 36.1995V21.2572C52.0051 20.4208 45.0067 17.5583 39.1603 12.9871C33.4976 18.1468 26.2632 21.2507 18.622 21.799Z" fill="#4285F4"/>
<path id="Vector_5" d="M34.3948 48.3937C34.1153 48.3937 33.8472 48.2826 33.6496 48.0849L27.7142 42.1495C27.5222 41.9507 27.416 41.6845 27.4184 41.4081C27.4208 41.1317 27.5316 40.8674 27.7271 40.6719C27.9225 40.4765 28.1869 40.3657 28.4632 40.3633C28.7396 40.3609 29.0059 40.4671 29.2047 40.6591L34.3948 45.8514L48.7953 31.4477C48.8932 31.3498 49.0093 31.2721 49.1372 31.2191C49.2651 31.166 49.4022 31.1387 49.5407 31.1387C49.6791 31.1386 49.8162 31.1658 49.9441 31.2188C50.0721 31.2717 50.1883 31.3493 50.2863 31.4472C50.3842 31.5451 50.4619 31.6613 50.5149 31.7891C50.5679 31.917 50.5953 32.0541 50.5953 32.1926C50.5954 32.331 50.5681 32.4681 50.5152 32.596C50.4623 32.724 50.3846 32.8402 50.2868 32.9382L35.14 48.0849C34.9424 48.2826 34.6743 48.3937 34.3948 48.3937Z" fill="#4285F4"/>
</g>
</svg>
