<svg width="24" height="24" viewBox="0 0 24 24" fill="none" xmlns="http://www.w3.org/2000/svg">
<g id="whatsapp 1" clip-path="url(#clip0_0_287)">
<path id="Vector" d="M0.557544 24C0.422779 24 0.291675 23.9467 0.194446 23.8484C0.0662722 23.7188 0.0168337 23.5305 0.0649905 23.3546L1.62523 17.657C0.653858 15.9005 0.141712 13.9135 0.142444 11.8964C0.145191 5.33661 5.48345 0 12.0427 0C15.2241 0.00128174 18.2135 1.24054 20.4604 3.48907C22.7069 5.73779 23.9436 8.72699 23.9427 11.9059C23.9397 18.4658 18.6015 23.8028 12.0427 23.8028C12.0427 23.8028 12.0377 23.8028 12.0375 23.8028C10.1217 23.8021 8.22234 23.3351 6.53118 22.4507L0.687 23.9833C0.644153 23.9945 0.600574 24 0.557544 24Z" fill="#E5E5E5"/>
<path id="Vector_2" d="M0.557617 23.4894L2.17334 17.5892C1.1767 15.8623 0.652466 13.9034 0.653198 11.8966C0.655762 5.61847 5.76477 0.510742 12.0427 0.510742C15.0892 0.512024 17.9488 1.69781 20.0992 3.85004C22.2494 6.00226 23.4332 8.8631 23.4321 11.9058C23.4293 18.1837 18.3196 23.2922 12.0427 23.2922C12.0424 23.2922 12.0429 23.2922 12.0427 23.2922H12.0378C10.1317 23.2914 8.25885 22.8134 6.59534 21.9061L0.557617 23.4894ZM6.87494 19.8448L7.22083 20.0497C8.67395 20.9122 10.34 21.3683 12.0391 21.3692H12.0427C17.2601 21.3692 21.5067 17.1234 21.5089 11.905C21.5098 9.37616 20.5262 6.99817 18.7389 5.20941C16.9514 3.42065 14.5749 2.435 12.0462 2.4339C6.82458 2.4339 2.57819 6.6792 2.57617 11.8973C2.57544 13.6855 3.07568 15.4269 4.02344 16.9338L4.24866 17.292L3.29211 20.7842L6.87494 19.8448Z" fill="white"/>
<path id="Vector_3" d="M0.953613 23.0919L2.51349 17.3957C1.55109 15.7287 1.04517 13.8374 1.04572 11.9003C1.0481 5.83954 5.98041 0.908691 12.0406 0.908691C14.9821 0.909973 17.7427 2.05475 19.8182 4.13245C21.8943 6.21014 23.0369 8.97192 23.0358 11.9089C23.0332 17.9699 18.1007 22.9013 12.0412 22.9013C12.0406 22.9013 12.0414 22.9013 12.0412 22.9013H12.0363C10.1962 22.9006 8.38806 22.4388 6.78223 21.5635L0.953613 23.0919Z" fill="#64B161"/>
<g id="Group">
<path id="Vector_4" d="M0.557617 23.4894L2.17334 17.5892C1.1767 15.8623 0.652466 13.9034 0.653198 11.8966C0.655762 5.61847 5.76477 0.510742 12.0427 0.510742C15.0892 0.512024 17.9488 1.69781 20.0992 3.85004C22.2494 6.00226 23.4332 8.8631 23.4321 11.9058C23.4293 18.1837 18.3196 23.2922 12.0427 23.2922C12.0424 23.2922 12.0429 23.2922 12.0427 23.2922H12.0378C10.1317 23.2914 8.25885 22.8134 6.59534 21.9061L0.557617 23.4894ZM6.87494 19.8448L7.22083 20.0497C8.67395 20.9122 10.34 21.3683 12.0391 21.3692H12.0427C17.2601 21.3692 21.5067 17.1234 21.5089 11.905C21.5098 9.37616 20.5262 6.99817 18.7389 5.20941C16.9514 3.42065 14.5749 2.435 12.0462 2.4339C6.82458 2.4339 2.57819 6.6792 2.57617 11.8973C2.57544 13.6855 3.07568 15.4269 4.02344 16.9338L4.24866 17.292L3.29211 20.7842L6.87494 19.8448Z" fill="white"/>
<path id="Vector_5" fill-rule="evenodd" clip-rule="evenodd" d="M9.19623 7.1366C8.98309 6.66272 8.7586 6.6532 8.55572 6.64496C8.38983 6.63782 8.19995 6.63819 8.01044 6.63819C7.82074 6.63819 7.51239 6.7096 7.25165 6.99433C6.99072 7.27906 6.25537 7.96753 6.25537 9.36774C6.25537 10.7681 7.27527 12.1211 7.41754 12.3112C7.55981 12.501 9.38629 15.4662 12.2788 16.607C14.6828 17.5551 15.1719 17.3665 15.6937 17.3191C16.2156 17.2717 17.3774 16.6306 17.6145 15.9661C17.8518 15.3016 17.8518 14.7322 17.7806 14.613C17.7093 14.4945 17.5196 14.4233 17.2351 14.281C16.9506 14.1387 15.5514 13.4501 15.2905 13.3552C15.0296 13.2602 14.8399 13.213 14.6502 13.4979C14.4603 13.7824 13.9154 14.4233 13.7493 14.613C13.5832 14.8032 13.4172 14.827 13.1326 14.6846C12.8481 14.5419 11.9315 14.2416 10.8442 13.2721C9.99823 12.5179 9.42694 11.5862 9.26086 11.3013C9.09497 11.0168 9.25812 10.8762 9.38592 10.7207C9.61609 10.4407 10.0023 9.93738 10.0971 9.74768C10.192 9.55762 10.1445 9.39154 10.0735 9.24909C10.0023 9.10681 9.44909 7.69947 9.19623 7.1366Z" fill="white"/>
</g>
</g>
<defs>
<clipPath id="clip0_0_287">
<rect width="24" height="24" fill="white"/>
</clipPath>
</defs>
</svg>
